<svg xmlns="http://www.w3.org/2000/svg" viewBox="0 0 128 128" role="img" aria-label="Foyer favicon">
  <rect width="128" height="128" rx="28" fill="#eeede9"/>
  <g transform="translate(18 34) scale(0.14)">
    <path fill="#1b1b1b" d="M306.75 0 L421.02 0 L421.02 114.28 L306.75 114.28 Z M658.72 114.28 L544.45 114.28 L544.45 0 L658.72 0 Z M0 82.5 L80.66 1.84 L80.66 215.09 L0 293.31 Z M0 296.98 C50.93 247.7 101.64 198.4 152.16 149.11 C202.66 99.82 252.98 50.73 303.09 1.84 L303.09 115.5 L0 410.03 Z M82.5 1.84 L163.16 82.5 L163.16 133.83 L82.5 212.05 Z M238.31 296.98 C289.24 247.7 340.06 198.4 390.78 149.11 C441.5 99.82 492.11 50.73 542.63 1.84 L542.63 115.5 L238.31 410.03 Z M2.44 411.25 L305.53 117.33 L418.58 117.33 L116.72 411.25 Z M355.03 411.25 L240.77 411.25 L543.23 117.33 L656.89 117.33 Z"/>
  </g>
</svg>
