<svg xmlns="http://www.w3.org/2000/svg" xmlns:xlink="http://www.w3.org/1999/xlink" width="2000" zoomAndPan="magnify" viewBox="0 0 1500 1499.999933" height="2000" preserveAspectRatio="xMidYMid meet" version="1.0"><defs><g/><clipPath id="e75810abb4"><path d="M 0.441406 222 L 660 222 L 660 634 L 0.441406 634 Z M 0.441406 222 " clip-rule="nonzero"/></clipPath><clipPath id="a2bb8d2117"><rect x="0" width="668" y="0" height="734"/></clipPath></defs><rect x="-150" width="1800" fill="#ffffff" y="-149.999993" height="1799.99992" fill-opacity="1"/><rect x="-150" width="1800" fill="#ffffff" y="-149.999993" height="1799.99992" fill-opacity="1"/><g transform="matrix(1, 0, 0, 1, 403, 353)"><g clip-path="url(#a2bb8d2117)"><g clip-path="url(#e75810abb4)"><g fill="#1b1b1b" fill-opacity="1"><g transform="translate(0.53577, 633.671065)"><g><path d="M 306.75 -411.25 L 421.015625 -411.25 L 421.015625 -296.96875 L 306.75 -296.96875 Z M 658.71875 -296.96875 L 544.453125 -296.96875 L 544.453125 -411.25 L 658.71875 -411.25 Z M 0 -328.75 L 80.65625 -409.40625 L 80.65625 -196.15625 L 0 -117.9375 Z M 0 -114.265625 C 50.925781 -163.554688 101.644531 -212.847656 152.15625 -262.140625 C 202.664062 -311.429688 252.976562 -360.519531 303.09375 -409.40625 L 303.09375 -295.75 L 0 -1.21875 Z M 82.5 -409.40625 L 163.15625 -328.75 L 163.15625 -277.421875 L 82.5 -199.203125 Z M 238.3125 -114.265625 C 289.238281 -163.554688 340.0625 -212.847656 390.78125 -262.140625 C 441.5 -311.429688 492.113281 -360.519531 542.625 -409.40625 L 542.625 -295.75 L 238.3125 -1.21875 Z M 2.4375 0 L 305.53125 -293.921875 L 418.578125 -293.921875 L 116.71875 0 Z M 355.03125 0 L 240.765625 0 L 543.234375 -293.921875 L 656.890625 -293.921875 Z M 355.03125 0 "/></g></g></g></g></g></g></svg>