<svg xmlns="http://www.w3.org/2000/svg" width="1200" height="630" viewBox="0 0 1200 630" role="img" aria-labelledby="title desc">
  <title id="title">Foyer</title>
  <desc id="desc">Voice sales agent for your website.</desc>
  <defs>
    <linearGradient id="bg" x1="0%" y1="0%" x2="100%" y2="100%">
      <stop offset="0%" stop-color="#151515"/>
      <stop offset="55%" stop-color="#1b1b1b"/>
      <stop offset="100%" stop-color="#2b1b04"/>
    </linearGradient>
    <radialGradient id="glow" cx="78%" cy="18%" r="60%">
      <stop offset="0%" stop-color="#f59e0b" stop-opacity="0.38"/>
      <stop offset="100%" stop-color="#f59e0b" stop-opacity="0"/>
    </radialGradient>
  </defs>

  <rect width="1200" height="630" fill="url(#bg)"/>
  <rect width="1200" height="630" fill="url(#glow)"/>

  <g transform="translate(96 106)">
    <g fill="#eeede9" transform="scale(0.28)">
      <path d="M306.75 0 L421.02 0 L421.02 114.28 L306.75 114.28 Z M658.72 114.28 L544.45 114.28 L544.45 0 L658.72 0 Z M0 82.5 L80.66 1.84 L80.66 215.09 L0 293.31 Z M0 296.98 C50.93 247.7 101.64 198.4 152.16 149.11 C202.66 99.82 252.98 50.73 303.09 1.84 L303.09 115.5 L0 410.03 Z M82.5 1.84 L163.16 82.5 L163.16 133.83 L82.5 212.05 Z M238.31 296.98 C289.24 247.7 340.06 198.4 390.78 149.11 C441.5 99.82 492.11 50.73 542.63 1.84 L542.63 115.5 L238.31 410.03 Z M2.44 411.25 L305.53 117.33 L418.58 117.33 L116.72 411.25 Z M355.03 411.25 L240.77 411.25 L543.23 117.33 L656.89 117.33 Z"/>
    </g>
    <text x="0" y="210" fill="#eeede9" font-family="Inter, Arial, sans-serif" font-size="102" font-weight="600" letter-spacing="-2">foyer</text>
    <text x="0" y="320" fill="#eeede9" font-family="Inter, Arial, sans-serif" font-size="64" font-weight="600" letter-spacing="-1.2">Your website's voice.</text>
    <text x="0" y="398" fill="rgba(238,237,233,0.82)" font-family="Inter, Arial, sans-serif" font-size="30">
      Voice sales agents that answer questions, navigate the page,
    </text>
    <text x="0" y="438" fill="rgba(238,237,233,0.82)" font-family="Inter, Arial, sans-serif" font-size="30">
      capture leads, and go live with one embed.
    </text>
    <text x="0" y="518" fill="#f59e0b" font-family="Inter, Arial, sans-serif" font-size="28" font-weight="500">
      tryfoyer.ai
    </text>
  </g>
</svg>
